# xmcd
#
# Track frame offsets: 
#        150
#        19508
#        38678
#        58879
#        80765
#        86703
#        106329
#        120303
#        147483
#
# Disc length: 2282 seconds
#
# Revision: 0
# Processed by: cddbd v1.5.2PL0 Copyright (c) Steve Scherf et al.
# Submitted via: ExactAudioCopy v1.0b1
#
DISCID=7208e809
DTITLE=Deák Bill Gyula - Mindhalálig Blues
DYEAR=1986
DGENRE=Blues
TTITLE0=Transit Blues (Budapest-Rotterdam)
TTITLE1=Ne fordulj el
TTITLE2=Válaszolni kell
TTITLE3=Tudod, minden blues
TTITLE4=I.M.R.B. (In Memoriam Radics Béla)
TTITLE5=Mindhalálig holnap
TTITLE6=Tiéd Minden Dal
TTITLE7=Kérlek Anyám, ne ölj meg engem
TTITLE8=Mindhalálig blues
EXTD=
EXTT0=
EXTT1=
EXTT2=
EXTT3=
EXTT4=
EXTT5=
EXTT6=
EXTT7=
EXTT8=
PLAYORDER=
